<svg xmlns="http://www.w3.org/2000/svg" viewBox="0 0 312 100"><defs><style>.cls-1{fill:#00caff;}.cls-2{fill:#007adb;}.cls-3{fill:#ee3f36;}.cls-4{fill:#282d31;}</style></defs><title>EDteam-logo</title><g id="Layer_2" data-name="Layer 2"><g id="Layer_1-2" data-name="Layer 1"><path class="cls-1" d="M75,93.29A49.9,49.9,0,0,0,87.74,82.8a15,15,0,0,1-20.21-15A25,25,0,0,1,28.35,62.5,12.5,12.5,0,0,0,6.7,75,50,50,0,0,0,75,93.29Z"/><path class="cls-2" d="M93.31,25A49.87,49.87,0,0,0,59.57.95a15,15,0,0,1-2.89,25,25,25,0,0,1,15,36.58h0A12.5,12.5,0,0,0,93.31,75c.14-.25.26-.5.38-.75A49.92,49.92,0,0,0,93.31,25Z"/><path class="cls-3" d="M62.5,12.5A12.5,12.5,0,0,0,50,0c-.25,0-.49,0-.74,0A50,50,0,0,0,2.73,66.28a15,15,0,0,1,23.07-10A25,25,0,0,1,50,25h0A12.5,12.5,0,0,0,62.5,12.5Z"/><path class="cls-4" d="M137.62,69.19H114.75V30.27h22.87V37H123.17v8.54h13.44v6.76H123.17v10h14.45Z"/><path class="cls-4" d="M176.62,49.36q0,9.61-5.58,14.72t-16.12,5.11H143.68V30.27h12.46q9.72,0,15.1,5T176.62,49.36Zm-8.74.21q0-12.54-11.3-12.54h-4.48V62.38h3.61Q167.87,62.38,167.87,49.57Z"/><path class="cls-4" d="M194.76,63.26a18.26,18.26,0,0,0,5.21-.93v6a18.92,18.92,0,0,1-7.6,1.36q-5,0-7.24-2.46t-2.27-7.39V45.53h-4V42.09l4.56-2.72,2.39-6.28h5.3v6.34h8.5v6.1h-8.5V59.88a3.14,3.14,0,0,0,1,2.56A4,4,0,0,0,194.76,63.26Z"/><path class="cls-4" d="M217.63,69.73q-7.33,0-11.46-4T202,54.53Q202,47,205.86,43t10.55-4.09q6.44,0,10,3.59T230,52.4v3.94H210.43a7.73,7.73,0,0,0,2.09,5.4A7.44,7.44,0,0,0,218,63.68a23.23,23.23,0,0,0,5.19-.56,26.29,26.29,0,0,0,5.11-1.78v6.28a19.73,19.73,0,0,1-4.64,1.58A29.87,29.87,0,0,1,217.63,69.73Zm-1.17-25.08a5.31,5.31,0,0,0-4.13,1.64,7.49,7.49,0,0,0-1.71,4.65h11.62a6.69,6.69,0,0,0-1.6-4.65A5.48,5.48,0,0,0,216.46,44.65Z"/><path class="cls-4" d="M253.8,69.19l-1.6-4H252a12.18,12.18,0,0,1-4.3,3.58,14.16,14.16,0,0,1-5.77,1A9.44,9.44,0,0,1,235,67.28q-2.51-2.45-2.51-7,0-4.74,3.38-7t10.2-2.49l5.27-.16v-1.3q0-4.52-4.73-4.53A21.88,21.88,0,0,0,238.08,47l-2.74-5.48A25.09,25.09,0,0,1,247,38.82q6.11,0,9.37,2.61t3.26,7.93V69.19ZM251.36,55.4l-3.2.11a10.43,10.43,0,0,0-5.38,1.28A4,4,0,0,0,241,60.36q0,3.43,4,3.43a6.44,6.44,0,0,0,4.6-1.62,5.64,5.64,0,0,0,1.72-4.31Z"/><path class="cls-4" d="M293.08,69.19h-8.28V51.81a8.62,8.62,0,0,0-1.1-4.83,3.9,3.9,0,0,0-3.46-1.61,5,5,0,0,0-4.62,2.29q-1.44,2.29-1.44,7.53v14h-8.28V39.43h6.33l1.11,3.81h.46A8.36,8.36,0,0,1,277.32,40a11.66,11.66,0,0,1,5.3-1.16q6.82,0,9.23,4.37h.73a8.14,8.14,0,0,1,3.6-3.22,12.21,12.21,0,0,1,5.36-1.14q5.16,0,7.81,2.6T312,49.79V69.19h-8.31V51.81a8.62,8.62,0,0,0-1.1-4.83,3.9,3.9,0,0,0-3.46-1.61,5.2,5.2,0,0,0-4.55,2.13q-1.51,2.13-1.51,6.76Z"/></g></g></svg>